<mxfile host="app.diagrams.net" modified="2022-05-27T18:19:32.829Z" agent="5.0 (Windows NT 10.0; Win64; x64) AppleWebKit/537.36 (KHTML, like Gecko) Chrome/102.0.0.0 Safari/537.36" etag="ZdSH5UJWLFzcEspkh04M" version="18.1.3" type="github">
  <diagram id="16_J8pd2cNKtsFhXCd2k" name="Page-1">
    <mxGraphModel dx="1422" dy="762" grid="1" gridSize="10" guides="1" tooltips="1" connect="1" arrows="1" fold="1" page="1" pageScale="1" pageWidth="1600" pageHeight="900" math="0" shadow="0">
      <root>
        <mxCell id="0" />
        <mxCell id="1" parent="0" />
        <mxCell id="tQsW3pdAo9ejDqMO_mFK-3" value="" style="swimlane;startSize=0;" vertex="1" parent="1">
          <mxGeometry x="70" y="75" width="470" height="695" as="geometry" />
        </mxCell>
        <mxCell id="tQsW3pdAo9ejDqMO_mFK-7" style="edgeStyle=orthogonalEdgeStyle;rounded=0;orthogonalLoop=1;jettySize=auto;html=1;entryX=0.25;entryY=0;entryDx=0;entryDy=0;" edge="1" parent="tQsW3pdAo9ejDqMO_mFK-3" source="tQsW3pdAo9ejDqMO_mFK-4" target="tQsW3pdAo9ejDqMO_mFK-1">
          <mxGeometry relative="1" as="geometry" />
        </mxCell>
        <mxCell id="tQsW3pdAo9ejDqMO_mFK-4" value="Cambio Estado Cobro" style="whiteSpace=wrap;html=1;" vertex="1" parent="tQsW3pdAo9ejDqMO_mFK-3">
          <mxGeometry x="50" y="40" width="120" height="40" as="geometry" />
        </mxCell>
        <mxCell id="tQsW3pdAo9ejDqMO_mFK-8" style="edgeStyle=orthogonalEdgeStyle;rounded=0;orthogonalLoop=1;jettySize=auto;html=1;" edge="1" parent="tQsW3pdAo9ejDqMO_mFK-3" source="tQsW3pdAo9ejDqMO_mFK-1" target="tQsW3pdAo9ejDqMO_mFK-6">
          <mxGeometry relative="1" as="geometry" />
        </mxCell>
        <mxCell id="tQsW3pdAo9ejDqMO_mFK-1" value="Cargar archivo (idsCobro) &lt;br&gt;Crear JSON" style="shape=process;whiteSpace=wrap;html=1;backgroundOutline=1;" vertex="1" parent="tQsW3pdAo9ejDqMO_mFK-3">
          <mxGeometry x="80" y="100" width="120" height="60" as="geometry" />
        </mxCell>
        <mxCell id="tQsW3pdAo9ejDqMO_mFK-6" value="ValidaciónEstructura" style="shape=process;whiteSpace=wrap;html=1;backgroundOutline=1;" vertex="1" parent="tQsW3pdAo9ejDqMO_mFK-3">
          <mxGeometry x="150" y="170" width="150" height="50" as="geometry" />
        </mxCell>
        <mxCell id="tQsW3pdAo9ejDqMO_mFK-5" value="Cobra" style="text;html=1;align=center;verticalAlign=middle;resizable=0;points=[];autosize=1;strokeColor=none;fillColor=none;" vertex="1" parent="tQsW3pdAo9ejDqMO_mFK-3">
          <mxGeometry x="20" y="10" width="50" height="20" as="geometry" />
        </mxCell>
        <mxCell id="tQsW3pdAo9ejDqMO_mFK-34" style="edgeStyle=orthogonalEdgeStyle;rounded=0;orthogonalLoop=1;jettySize=auto;html=1;entryX=0;entryY=0.5;entryDx=0;entryDy=0;" edge="1" parent="tQsW3pdAo9ejDqMO_mFK-3" source="tQsW3pdAo9ejDqMO_mFK-30" target="tQsW3pdAo9ejDqMO_mFK-33">
          <mxGeometry relative="1" as="geometry" />
        </mxCell>
        <mxCell id="tQsW3pdAo9ejDqMO_mFK-40" style="edgeStyle=orthogonalEdgeStyle;rounded=0;orthogonalLoop=1;jettySize=auto;html=1;entryX=0;entryY=0.5;entryDx=0;entryDy=0;" edge="1" parent="tQsW3pdAo9ejDqMO_mFK-3" source="tQsW3pdAo9ejDqMO_mFK-30" target="tQsW3pdAo9ejDqMO_mFK-39">
          <mxGeometry relative="1" as="geometry" />
        </mxCell>
        <mxCell id="tQsW3pdAo9ejDqMO_mFK-30" value="Respuesta Actualización Cobro" style="shape=process;whiteSpace=wrap;html=1;backgroundOutline=1;" vertex="1" parent="tQsW3pdAo9ejDqMO_mFK-3">
          <mxGeometry x="50" y="270" width="220" height="60" as="geometry" />
        </mxCell>
        <mxCell id="tQsW3pdAo9ejDqMO_mFK-33" value="Excel Response" style="shape=process;whiteSpace=wrap;html=1;backgroundOutline=1;" vertex="1" parent="tQsW3pdAo9ejDqMO_mFK-3">
          <mxGeometry x="180" y="350" width="150" height="50" as="geometry" />
        </mxCell>
        <mxCell id="tQsW3pdAo9ejDqMO_mFK-39" value="Auditoria" style="shape=process;whiteSpace=wrap;html=1;backgroundOutline=1;" vertex="1" parent="tQsW3pdAo9ejDqMO_mFK-3">
          <mxGeometry x="180" y="509" width="150" height="50" as="geometry" />
        </mxCell>
        <mxCell id="tQsW3pdAo9ejDqMO_mFK-45" style="edgeStyle=orthogonalEdgeStyle;rounded=0;orthogonalLoop=1;jettySize=auto;html=1;entryX=1;entryY=0.5;entryDx=0;entryDy=0;" edge="1" parent="tQsW3pdAo9ejDqMO_mFK-3" source="tQsW3pdAo9ejDqMO_mFK-43" target="tQsW3pdAo9ejDqMO_mFK-44">
          <mxGeometry relative="1" as="geometry" />
        </mxCell>
        <mxCell id="tQsW3pdAo9ejDqMO_mFK-43" value="&lt;span style=&quot;&quot;&gt;Async: No se crea ExcelResponse.&lt;/span&gt;&lt;br style=&quot;&quot;&gt;&lt;span style=&quot;&quot;&gt;Sync: Nueva pantalla para mostrar el resultado&lt;/span&gt;" style="shape=note;whiteSpace=wrap;html=1;backgroundOutline=1;darkOpacity=0.05;fillColor=#fff2cc;strokeColor=#d6b656;" vertex="1" parent="tQsW3pdAo9ejDqMO_mFK-3">
          <mxGeometry x="320" y="330" width="110" height="130" as="geometry" />
        </mxCell>
        <mxCell id="tQsW3pdAo9ejDqMO_mFK-44" value="Vista&lt;br&gt;Actualización Cobro" style="shape=document;whiteSpace=wrap;html=1;boundedLbl=1;" vertex="1" parent="tQsW3pdAo9ejDqMO_mFK-3">
          <mxGeometry x="200" y="605" width="120" height="80" as="geometry" />
        </mxCell>
        <mxCell id="tQsW3pdAo9ejDqMO_mFK-9" value="" style="swimlane;startSize=0;" vertex="1" parent="1">
          <mxGeometry x="810" y="30" width="380" height="400" as="geometry" />
        </mxCell>
        <mxCell id="tQsW3pdAo9ejDqMO_mFK-10" value="WS-COBRA-CORE" style="text;html=1;align=center;verticalAlign=middle;resizable=0;points=[];autosize=1;strokeColor=none;fillColor=none;" vertex="1" parent="tQsW3pdAo9ejDqMO_mFK-9">
          <mxGeometry x="20" y="10" width="120" height="20" as="geometry" />
        </mxCell>
        <mxCell id="tQsW3pdAo9ejDqMO_mFK-25" style="edgeStyle=orthogonalEdgeStyle;rounded=0;orthogonalLoop=1;jettySize=auto;html=1;entryX=0;entryY=0.5;entryDx=0;entryDy=0;" edge="1" parent="tQsW3pdAo9ejDqMO_mFK-9" source="tQsW3pdAo9ejDqMO_mFK-12" target="tQsW3pdAo9ejDqMO_mFK-18">
          <mxGeometry relative="1" as="geometry" />
        </mxCell>
        <mxCell id="tQsW3pdAo9ejDqMO_mFK-26" style="edgeStyle=orthogonalEdgeStyle;rounded=0;orthogonalLoop=1;jettySize=auto;html=1;entryX=0;entryY=0.5;entryDx=0;entryDy=0;" edge="1" parent="tQsW3pdAo9ejDqMO_mFK-9" source="tQsW3pdAo9ejDqMO_mFK-12" target="tQsW3pdAo9ejDqMO_mFK-13">
          <mxGeometry relative="1" as="geometry" />
        </mxCell>
        <mxCell id="tQsW3pdAo9ejDqMO_mFK-27" style="edgeStyle=orthogonalEdgeStyle;rounded=0;orthogonalLoop=1;jettySize=auto;html=1;entryX=0;entryY=0.5;entryDx=0;entryDy=0;" edge="1" parent="tQsW3pdAo9ejDqMO_mFK-9" source="tQsW3pdAo9ejDqMO_mFK-12" target="tQsW3pdAo9ejDqMO_mFK-14">
          <mxGeometry relative="1" as="geometry" />
        </mxCell>
        <mxCell id="tQsW3pdAo9ejDqMO_mFK-12" value="UpdatePaymentState" style="shape=process;whiteSpace=wrap;html=1;backgroundOutline=1;" vertex="1" parent="tQsW3pdAo9ejDqMO_mFK-9">
          <mxGeometry x="20" y="60" width="140" height="60" as="geometry" />
        </mxCell>
        <mxCell id="tQsW3pdAo9ejDqMO_mFK-13" value="ValidarAlturasInconcistencias" style="shape=process;whiteSpace=wrap;html=1;backgroundOutline=1;" vertex="1" parent="tQsW3pdAo9ejDqMO_mFK-9">
          <mxGeometry x="120" y="220" width="220" height="60" as="geometry" />
        </mxCell>
        <mxCell id="tQsW3pdAo9ejDqMO_mFK-14" value="UpdateCollectionMethod" style="shape=process;whiteSpace=wrap;html=1;backgroundOutline=1;" vertex="1" parent="tQsW3pdAo9ejDqMO_mFK-9">
          <mxGeometry x="120" y="300" width="220" height="60" as="geometry" />
        </mxCell>
        <mxCell id="tQsW3pdAo9ejDqMO_mFK-18" value="ValidarPoliza" style="shape=process;whiteSpace=wrap;html=1;backgroundOutline=1;" vertex="1" parent="tQsW3pdAo9ejDqMO_mFK-9">
          <mxGeometry x="120" y="140" width="220" height="60" as="geometry" />
        </mxCell>
        <mxCell id="tQsW3pdAo9ejDqMO_mFK-28" style="edgeStyle=orthogonalEdgeStyle;rounded=0;orthogonalLoop=1;jettySize=auto;html=1;entryX=0;entryY=0.5;entryDx=0;entryDy=0;" edge="1" parent="1" source="tQsW3pdAo9ejDqMO_mFK-6" target="tQsW3pdAo9ejDqMO_mFK-12">
          <mxGeometry relative="1" as="geometry" />
        </mxCell>
        <mxCell id="tQsW3pdAo9ejDqMO_mFK-31" style="edgeStyle=orthogonalEdgeStyle;rounded=0;orthogonalLoop=1;jettySize=auto;html=1;entryX=1;entryY=0.5;entryDx=0;entryDy=0;" edge="1" parent="1" source="tQsW3pdAo9ejDqMO_mFK-12" target="tQsW3pdAo9ejDqMO_mFK-30">
          <mxGeometry relative="1" as="geometry">
            <Array as="points">
              <mxPoint x="900" y="350" />
            </Array>
          </mxGeometry>
        </mxCell>
        <mxCell id="tQsW3pdAo9ejDqMO_mFK-32" value="JSON {Poliza, idCobro, Status, mssg}" style="shape=callout;whiteSpace=wrap;html=1;perimeter=calloutPerimeter;" vertex="1" parent="1">
          <mxGeometry x="560" y="270" width="190" height="80" as="geometry" />
        </mxCell>
        <mxCell id="tQsW3pdAo9ejDqMO_mFK-35" value="BD" style="shape=cylinder3;whiteSpace=wrap;html=1;boundedLbl=1;backgroundOutline=1;size=15;" vertex="1" parent="1">
          <mxGeometry x="1360" y="240" width="60" height="80" as="geometry" />
        </mxCell>
        <mxCell id="tQsW3pdAo9ejDqMO_mFK-36" style="edgeStyle=orthogonalEdgeStyle;rounded=0;orthogonalLoop=1;jettySize=auto;html=1;" edge="1" parent="1" source="tQsW3pdAo9ejDqMO_mFK-18" target="tQsW3pdAo9ejDqMO_mFK-35">
          <mxGeometry relative="1" as="geometry" />
        </mxCell>
        <mxCell id="tQsW3pdAo9ejDqMO_mFK-37" style="edgeStyle=orthogonalEdgeStyle;rounded=0;orthogonalLoop=1;jettySize=auto;html=1;" edge="1" parent="1" source="tQsW3pdAo9ejDqMO_mFK-13" target="tQsW3pdAo9ejDqMO_mFK-35">
          <mxGeometry relative="1" as="geometry" />
        </mxCell>
        <mxCell id="tQsW3pdAo9ejDqMO_mFK-38" style="edgeStyle=orthogonalEdgeStyle;rounded=0;orthogonalLoop=1;jettySize=auto;html=1;entryX=0.5;entryY=1;entryDx=0;entryDy=0;entryPerimeter=0;" edge="1" parent="1" source="tQsW3pdAo9ejDqMO_mFK-14" target="tQsW3pdAo9ejDqMO_mFK-35">
          <mxGeometry relative="1" as="geometry" />
        </mxCell>
        <mxCell id="tQsW3pdAo9ejDqMO_mFK-41" style="edgeStyle=orthogonalEdgeStyle;rounded=0;orthogonalLoop=1;jettySize=auto;html=1;entryX=0.5;entryY=1;entryDx=0;entryDy=0;entryPerimeter=0;" edge="1" parent="1" source="tQsW3pdAo9ejDqMO_mFK-39" target="tQsW3pdAo9ejDqMO_mFK-35">
          <mxGeometry relative="1" as="geometry">
            <mxPoint x="1390" y="409" as="targetPoint" />
          </mxGeometry>
        </mxCell>
      </root>
    </mxGraphModel>
  </diagram>
</mxfile>
